<?xml version="1.0" encoding="utf-8"?>
<!-- Generator: Adobe Illustrator 24.1.3, SVG Export Plug-In . SVG Version: 6.00 Build 0)  -->
<svg version="1.1" id="Layer_1" xmlns="http://www.w3.org/2000/svg" xmlns:xlink="http://www.w3.org/1999/xlink" x="0px" y="0px"
	 viewBox="0 0 24 24" style="enable-background:new 0 0 24 24;" xml:space="preserve">
<style type="text/css">
	.st0{fill:#FFFFFF;}
</style>
<path class="st0" d="M12,22C6.5,22,2,17.5,2,12S6.5,2,12,2s10,4.5,10,10S17.5,22,12,22z M7,18.3c1.4,1.1,3.2,1.7,5,1.7
	c1.9,0,3.7-0.7,5.2-1.9c-1.3-1.4-3.1-2.1-5-2.1C10.2,16,8.3,16.8,7,18.3z M5.6,16.8C7.3,15,9.7,14,12.2,14c2.4,0,4.7,0.9,6.4,2.6
	C21.1,13,20.2,8,16.6,5.5S8,3.8,5.5,7.4C3.5,10.2,3.5,14,5.6,16.8L5.6,16.8z M12,13c-2.2,0-4-1.8-4-4s1.8-4,4-4s4,1.8,4,4
	S14.2,13,12,13z M12,11c1.1,0,2-0.9,2-2s-0.9-2-2-2s-2,0.9-2,2S10.9,11,12,11z"/>
</svg>
