<?xml version="1.0" encoding="utf-8"?>
<!-- Generator: Adobe Illustrator 24.1.3, SVG Export Plug-In . SVG Version: 6.00 Build 0)  -->
<svg version="1.1" id="Layer_1" xmlns="http://www.w3.org/2000/svg" xmlns:xlink="http://www.w3.org/1999/xlink" x="0px" y="0px"
	 viewBox="0 0 24 24" style="enable-background:new 0 0 24 24;" xml:space="preserve">
<style type="text/css">
	.st0{fill:#FFFFFF;}
</style>
<path class="st0" d="M4,16V4H2V2h3c0.6,0,1,0.4,1,1v12h12.4l2-8H8V5h13.7c0.6,0,1,0.4,1,1c0,0.1,0,0.2,0,0.2l-2.5,10
	c-0.1,0.4-0.5,0.8-1,0.8H5C4.4,17,4,16.6,4,16z M6,23c-1.1,0-2-0.9-2-2s0.9-2,2-2s2,0.9,2,2S7.1,23,6,23z M18,23c-1.1,0-2-0.9-2-2
	s0.9-2,2-2s2,0.9,2,2S19.1,23,18,23z"/>
</svg>
