<svg xmlns="http://www.w3.org/2000/svg" viewBox="0 0 77.22 68.39"><defs><style>.cls-1{fill:#fff;}</style></defs><g id="Layer_2" data-name="Layer 2"><g id="Layer_1-2" data-name="Layer 1"><path class="cls-1" d="M4.77,68.28,2.66,64.79l-1,1.3v2.19H0V60H1.68v3.57L4.29,60h2L3.75,63.35l3,4.93Z"/><path class="cls-1" d="M16.5,60v1.42H13v1.86h3.12v1.42H13v2.16H16.5v1.41H11.34V60Z"/><path class="cls-1" d="M22.46,60l1.48,3.08L25.42,60h1.94L24.78,64.9v3.38H23.1V64.9L20.52,60Z"/><path class="cls-1" d="M37.38,60v1.42H35.1v6.85H33.42V61.43H31.14V60Z"/><path class="cls-1" d="M44.72,68.39c-1.86,0-3.16-1.13-3.16-3.66V63.56c0-2.56,1.3-3.66,3.16-3.66S47.9,61,47.9,63.56v1.17C47.9,67.26,46.59,68.39,44.72,68.39Zm-1.49-3.66c0,1.59.52,2.25,1.49,2.25s1.5-.66,1.5-2.25V63.56c0-1.59-.53-2.25-1.5-2.25s-1.49.66-1.49,2.25Z"/><path class="cls-1" d="M54.56,65.37v2.91H52.88V60h3c1.9,0,3.09.87,3.09,2.65s-1.18,2.71-3.09,2.71Zm1-1.42c1.16,0,1.65-.4,1.65-1.29s-.49-1.23-1.65-1.23h-1V64Z"/><path class="cls-1" d="M65.36,68.28H63.68V60h1.68Z"/><path class="cls-1" d="M69.85,68.28,72.73,60h1.61l2.88,8.27H75.43l-.51-1.57H72.15l-.5,1.57Zm2.75-3h1.87l-.94-2.92Z"/><path class="cls-1" d="M58.15,24.43a3.65,3.65,0,0,1-.64.85L41.59,41.21a3.68,3.68,0,0,1-5.21,0L20.46,25.28a4,4,0,0,1-.64-.85,3.67,3.67,0,0,0,.64,4.34L36.38,44.7a3.7,3.7,0,0,0,5.21,0L57.51,28.77A3.67,3.67,0,0,0,58.15,24.43Z"/><path class="cls-1" d="M57.51,17,41.59,1.08a3.68,3.68,0,0,0-5.21,0L20.46,17a3.67,3.67,0,0,0-.74,4.14,3.49,3.49,0,0,0,.74,1.07L36.38,38.13a3.68,3.68,0,0,0,5.21,0L56.83,22.89l.68-.68a3.76,3.76,0,0,0,.74-1.06A3.69,3.69,0,0,0,57.51,17ZM39.66,9.23l-1.35,5.62L36.9,13.44l1-4-1.61.23-1.55,1.55-1.19-1.19,5.85-5.85L40.56,5.4,38,7.92l4.38-.68,1.41,1.41Z"/></g></g></svg>