<?xml version="1.0" encoding="utf-8"?>
<!-- Generator: Adobe Illustrator 24.1.3, SVG Export Plug-In . SVG Version: 6.00 Build 0)  -->
<svg version="1.1" id="Layer_1" xmlns="http://www.w3.org/2000/svg" xmlns:xlink="http://www.w3.org/1999/xlink" x="0px" y="0px"
	 viewBox="0 0 77.2 68.4" style="enable-background:new 0 0 77.2 68.4;" xml:space="preserve">
<g id="Layer_2_1_">
	<g id="Layer_1-2">
		<path d="M58.2,24.4c-0.2,0.3-0.4,0.6-0.6,0.9L41.6,41.2c-1.4,1.4-3.8,1.4-5.2,0c0,0,0,0,0,0L20.5,25.3c-0.3-0.3-0.5-0.5-0.6-0.9
			c-0.8,1.4-0.5,3.2,0.6,4.3l15.9,15.9c1.4,1.4,3.8,1.4,5.2,0l15.9-15.9C58.7,27.6,58.9,25.9,58.2,24.4z"/>
		<path d="M57.5,17L41.6,1.1c-1.4-1.4-3.8-1.4-5.2,0c0,0,0,0,0,0L20.5,17c-1.1,1.1-1.4,2.7-0.7,4.1c0.2,0.4,0.4,0.8,0.7,1.1
			l15.9,15.9c1.4,1.4,3.8,1.4,5.2,0c0,0,0,0,0,0l15.2-15.2l0.7-0.7c0.3-0.3,0.6-0.7,0.7-1.1C58.9,19.7,58.6,18.1,57.5,17z M39.7,9.2
			l-1.3,5.6l-1.4-1.4l1-4l-1.6,0.2l-1.5,1.6L33.6,10l5.8-5.8l1.2,1.2L38,7.9l4.4-0.7l1.4,1.4L39.7,9.2z"/>
	</g>
</g>
</svg>
