<?xml version="1.0" encoding="utf-8"?>
<!-- Generator: Adobe Illustrator 24.1.2, SVG Export Plug-In . SVG Version: 6.00 Build 0)  -->
<svg version="1.1" id="Layer_1" xmlns="http://www.w3.org/2000/svg" xmlns:xlink="http://www.w3.org/1999/xlink" x="0px" y="0px"
	 viewBox="0 0 77.2 68.4" style="enable-background:new 0 0 77.2 68.4;" xml:space="preserve">
<style type="text/css">
	.st0{fill:#E0E0E0;}
	.st1{fill:#FFFFFF;}
</style>
<g id="Layer_2_1_">
	<g id="Layer_1-2">
		<path class="st0" d="M57.5,28.8L41.6,44.7c-1.4,1.4-3.8,1.4-5.2,0L20.5,28.8c-1.1-1.1-1.4-2.9-0.6-4.3c0.2,0.3,0.4,0.6,0.6,0.9
			l15.9,15.9c1.4,1.4,3.8,1.4,5.2,0c0,0,0,0,0,0l15.9-15.9c0.3-0.3,0.5-0.5,0.6-0.9C58.9,25.9,58.7,27.6,57.5,28.8z"/>
		<path class="st0" d="M58.2,21.1c-0.2,0.4-0.4,0.8-0.7,1.1l-0.7,0.7L41.6,38.1c-1.4,1.4-3.8,1.4-5.2,0c0,0,0,0,0,0L20.5,22.2
			c-0.3-0.3-0.6-0.7-0.7-1.1c-0.6-1.4-0.4-3.1,0.7-4.1L36.4,1.1c1.4-1.4,3.8-1.4,5.2,0c0,0,0,0,0,0L57.5,17
			C58.6,18.1,58.9,19.7,58.2,21.1z"/>
		<path class="st1" d="M36.9,13.4l1-4l-1.6,0.2l-1.5,1.6L33.6,10l5.8-5.8l1.2,1.2L38,7.9l4.4-0.7l1.4,1.4l-4.2,0.6l-1.3,5.6
			L36.9,13.4z"/>
	</g>
</g>
</svg>
