<svg xmlns="http://www.w3.org/2000/svg" viewBox="0 0 81.6 78.61"><defs><style>.cls-1,.cls-5{font-size:12px;font-family:DIN2014-Bold, "DIN 2014";font-weight:700;letter-spacing:0.3em;}.cls-1,.cls-3{fill:#231f20;}.cls-2{letter-spacing:0.29em;}.cls-4,.cls-5{fill:#fff;}</style></defs><g id="Layer_2" data-name="Layer 2"><g id="Layer_1-2" data-name="Layer 1"><text class="cls-1" transform="translate(0 75.05)">KEY<tspan class="cls-2" x="31.86" y="0">T</tspan><tspan x="41.81" y="0">OPIA</tspan></text><rect class="cls-3" x="24.86" y="17.99" width="29.88" height="29.88" transform="translate(34.95 -18.5) rotate(45)"/><rect class="cls-3" x="23.86" y="8.02" width="31.88" height="31.88" transform="translate(-5.28 35.16) rotate(-45)"/><path class="cls-4" d="M39.8,2.83,60.93,24,39.8,45.09,18.67,24,39.8,2.83M39.8,0,38.39,1.41,17.25,22.54,15.84,24l1.41,1.41L38.39,46.5l1.41,1.42,1.41-1.42L62.34,25.37,63.76,24l-1.42-1.41L41.21,1.41,39.8,0Z"/><text class="cls-5" transform="matrix(0.71, 0.71, -0.71, 0.71, 33.76, 13.84)">K</text></g></g></svg>