<?xml version="1.0" encoding="utf-8"?>
<!-- Generator: Adobe Illustrator 24.1.3, SVG Export Plug-In . SVG Version: 6.00 Build 0)  -->
<svg version="1.1" id="Layer_1" xmlns="http://www.w3.org/2000/svg" xmlns:xlink="http://www.w3.org/1999/xlink" x="0px" y="0px"
	 viewBox="0 0 77.2 68.4" style="enable-background:new 0 0 77.2 68.4;" xml:space="preserve">
<style type="text/css">
	.st0{fill:#FFFFFF;}
</style>
<g id="Layer_2_1_">
	<g id="Layer_1-2">
		<path class="st0" d="M67.9,36.8c-0.3,0.4-0.6,0.9-0.9,1.3L43.4,61.6c-2.1,2.1-5.6,2.1-7.7,0l0,0L12.3,38.2
			c-0.4-0.4-0.7-0.7-0.9-1.3c-1.2,2.1-0.7,4.7,0.9,6.4l23.5,23.5c2.1,2.1,5.6,2.1,7.7,0L67,43.3C68.7,41.5,69,39,67.9,36.8z"/>
		<path class="st0" d="M66.9,25.9L43.4,2.4c-2.1-2.1-5.6-2.1-7.7,0l0,0L12.3,25.9c-1.6,1.6-2.1,4-1,6.1c0.3,0.6,0.6,1.2,1,1.6
			l23.5,23.5c2.1,2.1,5.6,2.1,7.7,0l0,0l22.4-22.4l1-1c0.4-0.4,0.9-1,1-1.6C69,29.9,68.5,27.5,66.9,25.9z M40.6,14.4l-1.9,8.3
			l-2.1-2.1l1.5-5.9L35.7,15l-2.2,2.4l-1.9-1.8L40.2,7L42,8.8l-3.8,3.7l6.5-1l2.1,2.1L40.6,14.4z"/>
	</g>
</g>
</svg>
